<svg width="120" height="120" viewBox="0 0 120 120" fill="none" xmlns="http://www.w3.org/2000/svg">
<path d="M41.2227 89.6882L32.7575 102.598L18.8998 96.0862L28.1219 81.0977L41.2227 89.6882Z" fill="black"/>
<path d="M68.5195 70.8959C71.3875 80.5428 74.9465 89.5543 78.4136 95.9479C81.8807 102.341 84.972 105.593 87.0073 104.988C89.0427 104.383 89.8554 99.9706 89.2667 92.7214C88.678 85.4721 86.7361 75.9799 83.8681 66.333L76.1938 68.6144L68.5195 70.8959Z" fill="black"/>
<path d="M32.4511 102.391C36.703 104.786 42.2404 104.492 47.8453 101.573C53.4502 98.6536 58.6634 93.3489 62.3381 86.8255C66.0127 80.3022 67.8478 73.0945 67.4397 66.7882C67.0315 60.4819 64.4136 55.5936 60.1617 53.1984L46.3064 77.7948L32.4511 102.391Z" fill="black"/>
<path d="M101.51 68.6706C100.853 61.3889 96.3819 54.7521 89.0815 50.2202C81.781 45.6883 72.2488 43.6325 62.5817 44.5052C52.9146 45.3778 43.9045 49.1073 37.5336 54.8733C31.1627 60.6392 27.9529 67.9693 28.6102 75.251L65.06 71.9608L101.51 68.6706Z" fill="black"/>
<ellipse cx="60.7251" cy="29.9591" rx="9.56543" ry="17.7183" transform="rotate(-5.1579 60.7251 29.9591)" fill="black"/>
</svg>
