<svg width="120" height="120" viewBox="0 0 120 120" fill="none" xmlns="http://www.w3.org/2000/svg">
<g clip-path="url(#clip0_88_620)">
<path d="M92.0493 96.958C88.1125 99.1756 82.9853 98.903 77.7956 96.2002C72.606 93.4974 67.779 88.5856 64.3766 82.5456C60.9742 76.5055 59.2751 69.8319 59.653 63.9928C60.0309 58.1538 62.4549 53.6275 66.3917 51.4099L79.2205 74.1839L92.0493 96.958Z" fill="black"/>
<path d="M83.9287 85.1962L91.7667 97.1493L104.598 91.1202L96.0589 77.2421L83.9287 85.1962Z" fill="black"/>
<path d="M27.2912 102.963C27.2912 98.4446 28.4135 94.1112 30.4112 90.9161C32.4089 87.721 35.1183 85.9261 37.9435 85.9261C40.7686 85.9261 43.478 87.721 45.4757 90.9161C47.4734 94.1112 48.5957 98.4446 48.5957 102.963L37.9435 102.963H27.2912Z" fill="black"/>
<path d="M57.2413 67.6953L43.7028 63.1105L33.5994 97.294L48.8761 102.963L57.2413 67.6953Z" fill="black"/>
<path d="M101.093 39.7299C100.326 48.2298 95.1077 55.9768 86.586 61.2669C78.0642 66.5569 66.9373 68.9566 55.653 67.938C44.3687 66.9194 33.8514 62.566 26.4147 55.8354C18.978 49.1049 15.2311 40.5485 15.9984 32.0487L37.8783 34.0237C37.5056 38.1525 39.3257 42.3088 42.9381 45.5782C46.5505 48.8476 51.6593 50.9623 57.1407 51.4571C62.6221 51.9518 68.027 50.7862 72.1665 48.2165C76.3059 45.6469 78.8408 41.8837 79.2135 37.7549L101.093 39.7299Z" fill="black"/>
<ellipse cx="55.0839" cy="29.6024" rx="8.85675" ry="16.4056" transform="rotate(-5.1579 55.0839 29.6024)" fill="black"/>
</g>
<defs>
<clipPath id="clip0_88_620">
<rect width="120" height="120" fill="white"/>
</clipPath>
</defs>
</svg>
